# xmcd
#
# Track frame offsets: 
#        182
#        13300
#        31452
#        49992
#        66157
#        76587
#        92205
#        108887
#        124307
#        143907
#        159222
#        173727
#        187862
#        204452
#        219222
#
# Disc length: 3167 seconds
#
# Revision: 3
# Processed by: cddbd v1.5.2PL0 Copyright (c) Steve Scherf et al.
# Submitted via: ExactAudioCopy v1.1
#
DISCID=c40c5d0f
DTITLE=Shenandoah - Now And Then
DYEAR=1996
DGENRE=Country
TTITLE0=All Over But The Shoutin'
TTITLE1=I Will Know You
TTITLE2=Lonely Too Long
TTITLE3=Deeper Than That
TTITLE4=Nowhere To Go But Back
TTITLE5=Mama Knows
TTITLE6=She Doesn't Cry Anymore
TTITLE7=Next To You, Next To Me
TTITLE8=Sunday In The South
TTITLE9=Two Dozen Roses
TTITLE10=Moon Over Georgia
TTITLE11=Church On Cumberland Road
TTITLE12=Ghost In This House
TTITLE13=I Got You
TTITLE14=Somewhere In The Vicinity Of The Heart
EXTD=
EXTT0=
EXTT1=
EXTT2=
EXTT3=
EXTT4=
EXTT5=
EXTT6=
EXTT7=
EXTT8=
EXTT9=
EXTT10=
EXTT11=
EXTT12=
EXTT13=
EXTT14=
PLAYORDER=
